G04 (created by PCBNEW-RS274X (2011-05-25)-stable) date Thu 15 Mar 2012 01:05:41 AM MST*
G01*
G70*
G90*
%MOIN*%
G04 Gerber Fmt 3.4, Leading zero omitted, Abs format*
%FSLAX34Y34*%
G04 APERTURE LIST*
%ADD10C,0.006000*%
%ADD11C,0.015000*%
%ADD12R,0.055000X0.055000*%
%ADD13C,0.055000*%
%ADD14C,0.060000*%
%ADD15C,0.066000*%
%ADD16C,0.070000*%
%ADD17R,0.070000X0.070000*%
%ADD18R,0.100000X0.100000*%
%ADD19C,0.100000*%
%ADD20C,0.030000*%
%ADD21C,0.050000*%
%ADD22C,0.010000*%
G04 APERTURE END LIST*
G54D10*
G54D11*
X67000Y-20250D02*
X67000Y-40750D01*
X36000Y-40750D02*
X67000Y-40750D01*
X36000Y-20250D02*
X36000Y-40750D01*
X36000Y-20250D02*
X67000Y-20250D01*
G54D12*
X62250Y-35750D03*
G54D13*
X63250Y-35750D03*
X63250Y-34750D03*
G54D14*
X51000Y-29000D03*
X50000Y-30000D03*
X49000Y-29000D03*
X47500Y-29000D03*
X46500Y-30000D03*
X45500Y-29000D03*
X38000Y-26750D03*
X38000Y-21750D03*
X43750Y-38750D03*
X48750Y-38750D03*
X65000Y-28750D03*
X60000Y-28750D03*
X65000Y-27250D03*
X60000Y-27250D03*
X39750Y-35250D03*
X39750Y-30250D03*
X48750Y-31750D03*
X43750Y-31750D03*
X51500Y-22750D03*
X51500Y-27750D03*
X59950Y-31750D03*
X64950Y-31750D03*
X65000Y-30250D03*
X60000Y-30250D03*
X38500Y-30250D03*
X38500Y-35250D03*
X49000Y-37500D03*
X44000Y-37500D03*
G54D15*
X64250Y-25250D03*
X65250Y-25250D03*
X57750Y-35250D03*
X56750Y-35250D03*
X55250Y-35250D03*
X54250Y-35250D03*
X52750Y-35250D03*
X51750Y-35250D03*
X50250Y-35250D03*
X49250Y-35250D03*
X47750Y-35250D03*
X46750Y-35250D03*
X43250Y-21750D03*
X42250Y-21750D03*
X45750Y-21750D03*
X44750Y-21750D03*
X48250Y-21750D03*
X47250Y-21750D03*
X50750Y-21750D03*
X49750Y-21750D03*
X54500Y-21750D03*
X55500Y-21750D03*
X57000Y-21750D03*
X58000Y-21750D03*
X59500Y-21750D03*
X60500Y-21750D03*
X62000Y-21750D03*
X63000Y-21750D03*
X64500Y-21750D03*
X65500Y-21750D03*
X61750Y-25250D03*
X62750Y-25250D03*
X40250Y-25250D03*
X39250Y-25250D03*
X42750Y-25250D03*
X41750Y-25250D03*
X45250Y-25250D03*
X44250Y-25250D03*
X47750Y-25250D03*
X46750Y-25250D03*
X50250Y-25250D03*
X49250Y-25250D03*
X54250Y-25250D03*
X55250Y-25250D03*
X56750Y-25250D03*
X57750Y-25250D03*
X59250Y-25250D03*
X60250Y-25250D03*
X40750Y-21750D03*
X39750Y-21750D03*
X54750Y-38250D03*
X53750Y-38250D03*
X50750Y-38250D03*
X49750Y-38250D03*
G54D12*
X41750Y-36250D03*
G54D13*
X42750Y-36250D03*
X43750Y-36250D03*
X44750Y-36250D03*
X44750Y-33250D03*
X43750Y-33250D03*
X42750Y-33250D03*
X41750Y-33250D03*
G54D16*
X52750Y-27750D03*
G54D17*
X52750Y-22750D03*
G54D16*
X65000Y-37250D03*
G54D17*
X60000Y-37250D03*
G54D16*
X64950Y-33250D03*
G54D17*
X59950Y-33250D03*
G54D18*
X56250Y-32250D03*
G54D19*
X54250Y-32250D03*
X52250Y-32250D03*
G54D17*
X41250Y-29000D03*
G54D16*
X43250Y-29000D03*
G54D17*
X40750Y-38250D03*
G54D16*
X38750Y-38250D03*
G54D20*
X43250Y-29000D02*
X40750Y-31500D01*
X40750Y-35250D02*
X41750Y-36250D01*
X40750Y-31500D02*
X40750Y-35250D01*
X43250Y-29000D02*
X43250Y-28500D01*
X42250Y-27500D02*
X38500Y-27500D01*
X43250Y-28500D02*
X42250Y-27500D01*
X38500Y-30250D02*
X38500Y-28500D01*
X38500Y-28500D02*
X38500Y-28000D01*
X38500Y-28000D02*
X38500Y-27500D01*
X60000Y-30250D02*
X60000Y-28750D01*
X60000Y-28750D02*
X60000Y-27250D01*
X50250Y-31750D02*
X49250Y-30750D01*
X49250Y-30750D02*
X48250Y-30750D01*
X48250Y-30750D02*
X45750Y-33250D01*
X45750Y-33250D02*
X44750Y-33250D01*
X52250Y-32250D02*
X50750Y-32250D01*
X50750Y-32250D02*
X50250Y-31750D01*
X44750Y-33250D02*
X44750Y-33250D01*
X38000Y-26750D02*
X38500Y-27500D01*
X64950Y-33250D02*
X64750Y-33250D01*
G54D21*
X64750Y-33250D02*
X63250Y-34750D01*
G54D20*
X63250Y-35750D02*
X63500Y-35750D01*
X63500Y-35750D02*
X65000Y-37250D01*
X48750Y-38750D02*
X49250Y-38750D01*
X49250Y-38750D02*
X49750Y-38250D01*
X49000Y-29000D02*
X48000Y-28000D01*
X46500Y-28000D02*
X48000Y-28000D01*
X46500Y-28000D02*
X45500Y-29000D01*
X45500Y-29000D02*
X45500Y-30250D01*
X42750Y-31500D02*
X42750Y-33250D01*
X43500Y-30750D02*
X42750Y-31500D01*
X45000Y-30750D02*
X43500Y-30750D01*
X45500Y-30250D02*
X45000Y-30750D01*
X45500Y-29000D02*
X45500Y-29000D01*
X43750Y-31750D02*
X44000Y-31500D01*
X46500Y-30500D02*
X46500Y-30000D01*
X45250Y-31500D02*
X46500Y-30500D01*
X44000Y-31500D02*
X45250Y-31500D01*
X50750Y-38250D02*
X53750Y-38250D01*
X44000Y-37500D02*
X44000Y-37250D01*
X43750Y-37000D02*
X43750Y-36250D01*
X44000Y-37250D02*
X43750Y-37000D01*
X49250Y-35250D02*
X47750Y-35250D01*
X51750Y-35250D02*
X50250Y-35250D01*
X54250Y-35250D02*
X52750Y-35250D01*
X55250Y-35250D02*
X56750Y-35250D01*
X48250Y-21750D02*
X49750Y-21750D01*
X55250Y-25250D02*
X56750Y-25250D01*
X57750Y-25250D02*
X59250Y-25250D01*
X60250Y-25250D02*
X61750Y-25250D01*
X62750Y-25250D02*
X64250Y-25250D01*
X65000Y-27250D02*
X65250Y-27000D01*
X65250Y-25750D02*
X65250Y-25250D01*
X65250Y-27000D02*
X65250Y-25750D01*
X42250Y-21750D02*
X40750Y-21750D01*
X39750Y-21750D02*
X38000Y-21750D01*
X44750Y-21750D02*
X43250Y-21750D01*
X45750Y-21750D02*
X47250Y-21750D01*
X49250Y-25250D02*
X47750Y-25250D01*
X46750Y-25250D02*
X45250Y-25250D01*
X44250Y-25250D02*
X42750Y-25250D01*
X41750Y-25250D02*
X40250Y-25250D01*
X39250Y-25250D02*
X37500Y-25250D01*
X38750Y-31250D02*
X39750Y-30250D01*
X38000Y-31250D02*
X38750Y-31250D01*
X37000Y-30250D02*
X38000Y-31250D01*
X37000Y-25750D02*
X37000Y-30250D01*
X37500Y-25250D02*
X37000Y-25750D01*
X63000Y-21750D02*
X64500Y-21750D01*
G54D21*
X65000Y-28750D02*
X66250Y-27500D01*
X66250Y-22500D02*
X65500Y-21750D01*
X66250Y-27500D02*
X66250Y-22500D01*
G54D20*
X60500Y-21750D02*
X62000Y-21750D01*
X58000Y-21750D02*
X59500Y-21750D01*
X55500Y-21750D02*
X57000Y-21750D01*
X43750Y-38750D02*
X44000Y-38750D01*
X46750Y-36000D02*
X46750Y-35250D01*
X44000Y-38750D02*
X46750Y-36000D01*
X38500Y-35250D02*
X38500Y-37000D01*
X43250Y-39250D02*
X43750Y-38750D01*
X38500Y-39250D02*
X43250Y-39250D01*
X37750Y-38500D02*
X38500Y-39250D01*
X37750Y-37750D02*
X37750Y-38500D01*
X38500Y-37000D02*
X37750Y-37750D01*
X38750Y-38250D02*
X38750Y-38000D01*
X39750Y-37000D02*
X39750Y-35250D01*
X38750Y-38000D02*
X39750Y-37000D01*
X41250Y-29000D02*
X41250Y-29250D01*
X39750Y-31500D02*
X39750Y-35250D01*
X40750Y-30500D02*
X39750Y-31500D01*
X40750Y-29750D02*
X40750Y-30500D01*
X41250Y-29250D02*
X40750Y-29750D01*
X54250Y-25250D02*
X54250Y-25500D01*
G54D21*
X59000Y-30800D02*
X59950Y-31750D01*
X59000Y-27250D02*
X59000Y-30800D01*
X58000Y-26250D02*
X59000Y-27250D01*
X55000Y-26250D02*
X58000Y-26250D01*
X54250Y-25500D02*
X55000Y-26250D01*
X59950Y-33250D02*
X59950Y-31750D01*
G54D20*
X50000Y-30000D02*
X48000Y-30000D01*
X43750Y-33000D02*
X44500Y-32250D01*
X44500Y-32250D02*
X45750Y-32250D01*
X45750Y-32250D02*
X48000Y-30000D01*
X43750Y-33000D02*
X43750Y-33250D01*
X40750Y-38250D02*
X41000Y-38250D01*
X42750Y-36500D02*
X42750Y-36250D01*
X41000Y-38250D02*
X42750Y-36500D01*
X42750Y-36250D02*
X42750Y-35250D01*
X43750Y-34250D02*
X43750Y-33250D01*
X42750Y-35250D02*
X43750Y-34250D01*
X65000Y-30250D02*
X65000Y-30500D01*
X61000Y-38250D02*
X60000Y-37250D01*
X65250Y-38250D02*
X61000Y-38250D01*
X66000Y-37500D02*
X65250Y-38250D01*
X66000Y-31500D02*
X66000Y-37500D01*
X65000Y-30500D02*
X66000Y-31500D01*
X49000Y-37500D02*
X48750Y-37500D01*
X57500Y-39750D02*
X60000Y-37250D01*
X48500Y-39750D02*
X57500Y-39750D01*
X47750Y-39000D02*
X48500Y-39750D01*
X47750Y-38500D02*
X47750Y-39000D01*
X48750Y-37500D02*
X47750Y-38500D01*
X52750Y-22750D02*
X52750Y-22250D01*
X53250Y-21750D02*
X54500Y-21750D01*
X52750Y-22250D02*
X53250Y-21750D01*
X50750Y-21750D02*
X50750Y-22000D01*
X50750Y-22000D02*
X51500Y-22750D01*
G54D21*
X51500Y-22750D02*
X52750Y-22750D01*
X57750Y-33500D02*
X57750Y-31750D01*
X52750Y-26250D02*
X52750Y-22750D01*
X54000Y-27500D02*
X52750Y-26250D01*
X54000Y-28000D02*
X54000Y-27500D01*
X57750Y-31750D02*
X54000Y-28000D01*
X57750Y-35250D02*
X57750Y-33500D01*
G54D20*
X57750Y-33500D02*
X57750Y-33500D01*
X41750Y-33250D02*
X41750Y-31500D01*
X51000Y-27250D02*
X51500Y-27750D01*
X46000Y-27250D02*
X51000Y-27250D01*
X44500Y-28750D02*
X46000Y-27250D01*
X44500Y-29750D02*
X44500Y-28750D01*
X44250Y-30000D02*
X44500Y-29750D01*
X43250Y-30000D02*
X44250Y-30000D01*
X41750Y-31500D02*
X43250Y-30000D01*
G54D21*
X51500Y-27750D02*
X51500Y-28250D01*
X51500Y-28250D02*
X54250Y-31000D01*
X54250Y-31000D02*
X54250Y-32250D01*
X62250Y-35750D02*
X62250Y-34450D01*
X62250Y-34450D02*
X64950Y-31750D01*
G54D20*
X54750Y-38250D02*
X57000Y-38250D01*
X59500Y-35750D02*
X62250Y-35750D01*
X57000Y-38250D02*
X59500Y-35750D01*
X41750Y-33250D02*
X41750Y-33250D01*
G54D21*
X52750Y-27750D02*
X52750Y-28250D01*
X56250Y-31750D02*
X56250Y-32250D01*
X52750Y-28250D02*
X56250Y-31750D01*
G54D20*
X48750Y-31750D02*
X48750Y-34000D01*
X54500Y-34000D02*
X55250Y-33250D01*
X50500Y-34000D02*
X54500Y-34000D01*
X55250Y-33250D02*
X56250Y-32250D01*
X46000Y-34000D02*
X47500Y-34000D01*
X47500Y-34000D02*
X48750Y-34000D01*
X48750Y-34000D02*
X50500Y-34000D01*
X50500Y-34000D02*
X50500Y-34000D01*
X44750Y-36250D02*
X45250Y-36250D01*
X45750Y-34250D02*
X46000Y-34000D01*
X45750Y-35750D02*
X45750Y-34250D01*
X45250Y-36250D02*
X45750Y-35750D01*
G54D10*
G36*
X55401Y-32391D02*
X54896Y-32896D01*
X54894Y-32898D01*
X54292Y-33500D01*
X52989Y-33500D01*
X52989Y-32377D01*
X52981Y-32085D01*
X52884Y-31850D01*
X52770Y-31800D01*
X52700Y-31870D01*
X52700Y-31730D01*
X52650Y-31616D01*
X52377Y-31511D01*
X52085Y-31519D01*
X51850Y-31616D01*
X51800Y-31730D01*
X52250Y-32179D01*
X52700Y-31730D01*
X52700Y-31870D01*
X52321Y-32250D01*
X52770Y-32700D01*
X52884Y-32650D01*
X52989Y-32377D01*
X52989Y-33500D01*
X52700Y-33500D01*
X52700Y-32770D01*
X52250Y-32321D01*
X52179Y-32391D01*
X52179Y-32250D01*
X51730Y-31800D01*
X51616Y-31850D01*
X51511Y-32123D01*
X51519Y-32415D01*
X51616Y-32650D01*
X51730Y-32700D01*
X52179Y-32250D01*
X52179Y-32391D01*
X51800Y-32770D01*
X51850Y-32884D01*
X52123Y-32989D01*
X52415Y-32981D01*
X52650Y-32884D01*
X52700Y-32770D01*
X52700Y-33500D01*
X50500Y-33500D01*
X49250Y-33500D01*
X49250Y-32168D01*
X49300Y-32118D01*
X49399Y-31879D01*
X49399Y-31621D01*
X49300Y-31382D01*
X49118Y-31200D01*
X48879Y-31101D01*
X48621Y-31101D01*
X48382Y-31200D01*
X48200Y-31382D01*
X48101Y-31621D01*
X48101Y-31879D01*
X48200Y-32118D01*
X48250Y-32168D01*
X48250Y-33500D01*
X47500Y-33500D01*
X46000Y-33500D01*
X45809Y-33538D01*
X45646Y-33646D01*
X45644Y-33648D01*
X45396Y-33896D01*
X45288Y-34058D01*
X45269Y-34151D01*
X45269Y-33324D01*
X45258Y-33120D01*
X45202Y-32983D01*
X45111Y-32960D01*
X44821Y-33250D01*
X45111Y-33540D01*
X45202Y-33517D01*
X45269Y-33324D01*
X45269Y-34151D01*
X45249Y-34250D01*
X45250Y-34254D01*
X45250Y-35542D01*
X45081Y-35710D01*
X45040Y-35693D01*
X45040Y-33611D01*
X44750Y-33321D01*
X44460Y-33611D01*
X44483Y-33702D01*
X44676Y-33769D01*
X44880Y-33758D01*
X45017Y-33702D01*
X45040Y-33611D01*
X45040Y-35693D01*
X44875Y-35625D01*
X44626Y-35625D01*
X44396Y-35720D01*
X44250Y-35866D01*
X44104Y-35720D01*
X43875Y-35625D01*
X43626Y-35625D01*
X43396Y-35720D01*
X43250Y-35866D01*
X43250Y-35457D01*
X44101Y-34605D01*
X44103Y-34604D01*
X44104Y-34604D01*
X44168Y-34506D01*
X44212Y-34442D01*
X44212Y-34441D01*
X44250Y-34250D01*
X44250Y-33634D01*
X44280Y-33604D01*
X44314Y-33521D01*
X44389Y-33540D01*
X44644Y-33285D01*
X44679Y-33250D01*
X44750Y-33179D01*
X44785Y-33144D01*
X45040Y-32889D01*
X45017Y-32798D01*
X44878Y-32750D01*
X45745Y-32750D01*
X45750Y-32751D01*
X45750Y-32750D01*
X45941Y-32712D01*
X45942Y-32712D01*
X46104Y-32604D01*
X48207Y-30500D01*
X49582Y-30500D01*
X49632Y-30550D01*
X49871Y-30649D01*
X50129Y-30649D01*
X50368Y-30550D01*
X50550Y-30368D01*
X50649Y-30129D01*
X50649Y-29871D01*
X50550Y-29632D01*
X50368Y-29450D01*
X50129Y-29351D01*
X49871Y-29351D01*
X49632Y-29450D01*
X49582Y-29500D01*
X49418Y-29500D01*
X49550Y-29368D01*
X49649Y-29129D01*
X49649Y-28871D01*
X49550Y-28632D01*
X49368Y-28450D01*
X49129Y-28351D01*
X49058Y-28351D01*
X48457Y-27750D01*
X50792Y-27750D01*
X50851Y-27808D01*
X50851Y-27879D01*
X50900Y-27997D01*
X50900Y-28250D01*
X50920Y-28351D01*
X50871Y-28351D01*
X50632Y-28450D01*
X50450Y-28632D01*
X50351Y-28871D01*
X50351Y-29129D01*
X50450Y-29368D01*
X50632Y-29550D01*
X50871Y-29649D01*
X51129Y-29649D01*
X51368Y-29550D01*
X51550Y-29368D01*
X51614Y-29212D01*
X53650Y-31248D01*
X53650Y-31648D01*
X53530Y-31768D01*
X53400Y-32080D01*
X53400Y-32418D01*
X53529Y-32730D01*
X53768Y-32970D01*
X54080Y-33100D01*
X54418Y-33100D01*
X54730Y-32971D01*
X54970Y-32732D01*
X55100Y-32420D01*
X55100Y-32082D01*
X54971Y-31770D01*
X54850Y-31648D01*
X54850Y-31198D01*
X55401Y-31749D01*
X55401Y-31819D01*
X55401Y-32391D01*
X55401Y-32391D01*
G37*
G54D22*
X55401Y-32391D02*
X54896Y-32896D01*
X54894Y-32898D01*
X54292Y-33500D01*
X52989Y-33500D01*
X52989Y-32377D01*
X52981Y-32085D01*
X52884Y-31850D01*
X52770Y-31800D01*
X52700Y-31870D01*
X52700Y-31730D01*
X52650Y-31616D01*
X52377Y-31511D01*
X52085Y-31519D01*
X51850Y-31616D01*
X51800Y-31730D01*
X52250Y-32179D01*
X52700Y-31730D01*
X52700Y-31870D01*
X52321Y-32250D01*
X52770Y-32700D01*
X52884Y-32650D01*
X52989Y-32377D01*
X52989Y-33500D01*
X52700Y-33500D01*
X52700Y-32770D01*
X52250Y-32321D01*
X52179Y-32391D01*
X52179Y-32250D01*
X51730Y-31800D01*
X51616Y-31850D01*
X51511Y-32123D01*
X51519Y-32415D01*
X51616Y-32650D01*
X51730Y-32700D01*
X52179Y-32250D01*
X52179Y-32391D01*
X51800Y-32770D01*
X51850Y-32884D01*
X52123Y-32989D01*
X52415Y-32981D01*
X52650Y-32884D01*
X52700Y-32770D01*
X52700Y-33500D01*
X50500Y-33500D01*
X49250Y-33500D01*
X49250Y-32168D01*
X49300Y-32118D01*
X49399Y-31879D01*
X49399Y-31621D01*
X49300Y-31382D01*
X49118Y-31200D01*
X48879Y-31101D01*
X48621Y-31101D01*
X48382Y-31200D01*
X48200Y-31382D01*
X48101Y-31621D01*
X48101Y-31879D01*
X48200Y-32118D01*
X48250Y-32168D01*
X48250Y-33500D01*
X47500Y-33500D01*
X46000Y-33500D01*
X45809Y-33538D01*
X45646Y-33646D01*
X45644Y-33648D01*
X45396Y-33896D01*
X45288Y-34058D01*
X45269Y-34151D01*
X45269Y-33324D01*
X45258Y-33120D01*
X45202Y-32983D01*
X45111Y-32960D01*
X44821Y-33250D01*
X45111Y-33540D01*
X45202Y-33517D01*
X45269Y-33324D01*
X45269Y-34151D01*
X45249Y-34250D01*
X45250Y-34254D01*
X45250Y-35542D01*
X45081Y-35710D01*
X45040Y-35693D01*
X45040Y-33611D01*
X44750Y-33321D01*
X44460Y-33611D01*
X44483Y-33702D01*
X44676Y-33769D01*
X44880Y-33758D01*
X45017Y-33702D01*
X45040Y-33611D01*
X45040Y-35693D01*
X44875Y-35625D01*
X44626Y-35625D01*
X44396Y-35720D01*
X44250Y-35866D01*
X44104Y-35720D01*
X43875Y-35625D01*
X43626Y-35625D01*
X43396Y-35720D01*
X43250Y-35866D01*
X43250Y-35457D01*
X44101Y-34605D01*
X44103Y-34604D01*
X44104Y-34604D01*
X44168Y-34506D01*
X44212Y-34442D01*
X44212Y-34441D01*
X44250Y-34250D01*
X44250Y-33634D01*
X44280Y-33604D01*
X44314Y-33521D01*
X44389Y-33540D01*
X44644Y-33285D01*
X44679Y-33250D01*
X44750Y-33179D01*
X44785Y-33144D01*
X45040Y-32889D01*
X45017Y-32798D01*
X44878Y-32750D01*
X45745Y-32750D01*
X45750Y-32751D01*
X45750Y-32750D01*
X45941Y-32712D01*
X45942Y-32712D01*
X46104Y-32604D01*
X48207Y-30500D01*
X49582Y-30500D01*
X49632Y-30550D01*
X49871Y-30649D01*
X50129Y-30649D01*
X50368Y-30550D01*
X50550Y-30368D01*
X50649Y-30129D01*
X50649Y-29871D01*
X50550Y-29632D01*
X50368Y-29450D01*
X50129Y-29351D01*
X49871Y-29351D01*
X49632Y-29450D01*
X49582Y-29500D01*
X49418Y-29500D01*
X49550Y-29368D01*
X49649Y-29129D01*
X49649Y-28871D01*
X49550Y-28632D01*
X49368Y-28450D01*
X49129Y-28351D01*
X49058Y-28351D01*
X48457Y-27750D01*
X50792Y-27750D01*
X50851Y-27808D01*
X50851Y-27879D01*
X50900Y-27997D01*
X50900Y-28250D01*
X50920Y-28351D01*
X50871Y-28351D01*
X50632Y-28450D01*
X50450Y-28632D01*
X50351Y-28871D01*
X50351Y-29129D01*
X50450Y-29368D01*
X50632Y-29550D01*
X50871Y-29649D01*
X51129Y-29649D01*
X51368Y-29550D01*
X51550Y-29368D01*
X51614Y-29212D01*
X53650Y-31248D01*
X53650Y-31648D01*
X53530Y-31768D01*
X53400Y-32080D01*
X53400Y-32418D01*
X53529Y-32730D01*
X53768Y-32970D01*
X54080Y-33100D01*
X54418Y-33100D01*
X54730Y-32971D01*
X54970Y-32732D01*
X55100Y-32420D01*
X55100Y-32082D01*
X54971Y-31770D01*
X54850Y-31648D01*
X54850Y-31198D01*
X55401Y-31749D01*
X55401Y-31819D01*
X55401Y-32391D01*
G54D10*
G36*
X66575Y-40325D02*
X66500Y-40325D01*
X66500Y-37500D01*
X66500Y-31500D01*
X66462Y-31309D01*
X66462Y-31308D01*
X66418Y-31243D01*
X66354Y-31146D01*
X66351Y-31144D01*
X65630Y-30423D01*
X65649Y-30379D01*
X65649Y-30121D01*
X65550Y-29882D01*
X65368Y-29700D01*
X65129Y-29601D01*
X64871Y-29601D01*
X64632Y-29700D01*
X64450Y-29882D01*
X64351Y-30121D01*
X64351Y-30379D01*
X64450Y-30618D01*
X64566Y-30734D01*
X64567Y-30735D01*
X64646Y-30854D01*
X64893Y-31101D01*
X64821Y-31101D01*
X64582Y-31200D01*
X64400Y-31382D01*
X64351Y-31499D01*
X61826Y-34026D01*
X61696Y-34220D01*
X61650Y-34450D01*
X61650Y-35250D01*
X59500Y-35250D01*
X59309Y-35288D01*
X59146Y-35396D01*
X59144Y-35398D01*
X56792Y-37750D01*
X55211Y-37750D01*
X55135Y-37674D01*
X54886Y-37570D01*
X54615Y-37570D01*
X54365Y-37673D01*
X54250Y-37788D01*
X54135Y-37674D01*
X53886Y-37570D01*
X53615Y-37570D01*
X53365Y-37673D01*
X53288Y-37750D01*
X51211Y-37750D01*
X51135Y-37674D01*
X50886Y-37570D01*
X50615Y-37570D01*
X50365Y-37673D01*
X50250Y-37788D01*
X50135Y-37674D01*
X49886Y-37570D01*
X49649Y-37570D01*
X49649Y-37371D01*
X49550Y-37132D01*
X49368Y-36950D01*
X49129Y-36851D01*
X48871Y-36851D01*
X48632Y-36950D01*
X48515Y-37066D01*
X48514Y-37067D01*
X48493Y-37081D01*
X48396Y-37146D01*
X48394Y-37148D01*
X47396Y-38146D01*
X47288Y-38308D01*
X47249Y-38500D01*
X47250Y-38504D01*
X47250Y-38995D01*
X47249Y-39000D01*
X47288Y-39192D01*
X47396Y-39354D01*
X48144Y-40101D01*
X48146Y-40104D01*
X48308Y-40211D01*
X48309Y-40212D01*
X48500Y-40250D01*
X57495Y-40250D01*
X57500Y-40251D01*
X57500Y-40250D01*
X57691Y-40212D01*
X57692Y-40212D01*
X57854Y-40104D01*
X59999Y-37957D01*
X60644Y-38601D01*
X60646Y-38604D01*
X60743Y-38668D01*
X60808Y-38712D01*
X60809Y-38712D01*
X61000Y-38750D01*
X65245Y-38750D01*
X65250Y-38751D01*
X65250Y-38750D01*
X65441Y-38712D01*
X65442Y-38712D01*
X65604Y-38604D01*
X66351Y-37855D01*
X66353Y-37854D01*
X66354Y-37854D01*
X66461Y-37692D01*
X66462Y-37691D01*
X66500Y-37500D01*
X66500Y-40325D01*
X36425Y-40325D01*
X36425Y-20675D01*
X66575Y-20675D01*
X66575Y-21976D01*
X66156Y-21558D01*
X66077Y-21365D01*
X65885Y-21174D01*
X65636Y-21070D01*
X65365Y-21070D01*
X65115Y-21173D01*
X65000Y-21288D01*
X64885Y-21174D01*
X64636Y-21070D01*
X64365Y-21070D01*
X64115Y-21173D01*
X64038Y-21250D01*
X63461Y-21250D01*
X63385Y-21174D01*
X63136Y-21070D01*
X62865Y-21070D01*
X62615Y-21173D01*
X62500Y-21288D01*
X62385Y-21174D01*
X62136Y-21070D01*
X61865Y-21070D01*
X61615Y-21173D01*
X61538Y-21250D01*
X60961Y-21250D01*
X60885Y-21174D01*
X60636Y-21070D01*
X60365Y-21070D01*
X60115Y-21173D01*
X60000Y-21288D01*
X59885Y-21174D01*
X59636Y-21070D01*
X59365Y-21070D01*
X59115Y-21173D01*
X59038Y-21250D01*
X58461Y-21250D01*
X58385Y-21174D01*
X58136Y-21070D01*
X57865Y-21070D01*
X57615Y-21173D01*
X57500Y-21288D01*
X57385Y-21174D01*
X57136Y-21070D01*
X56865Y-21070D01*
X56615Y-21173D01*
X56538Y-21250D01*
X55961Y-21250D01*
X55885Y-21174D01*
X55636Y-21070D01*
X55365Y-21070D01*
X55115Y-21173D01*
X55000Y-21288D01*
X54885Y-21174D01*
X54636Y-21070D01*
X54365Y-21070D01*
X54115Y-21173D01*
X54038Y-21250D01*
X53254Y-21250D01*
X53250Y-21249D01*
X53058Y-21288D01*
X52993Y-21331D01*
X52896Y-21396D01*
X52894Y-21398D01*
X52396Y-21896D01*
X52288Y-22058D01*
X52285Y-22069D01*
X52203Y-22104D01*
X52156Y-22150D01*
X51747Y-22150D01*
X51629Y-22101D01*
X51558Y-22101D01*
X51404Y-21946D01*
X51430Y-21886D01*
X51430Y-21615D01*
X51327Y-21365D01*
X51135Y-21174D01*
X50886Y-21070D01*
X50615Y-21070D01*
X50365Y-21173D01*
X50250Y-21288D01*
X50135Y-21174D01*
X49886Y-21070D01*
X49615Y-21070D01*
X49365Y-21173D01*
X49288Y-21250D01*
X48711Y-21250D01*
X48635Y-21174D01*
X48386Y-21070D01*
X48115Y-21070D01*
X47865Y-21173D01*
X47750Y-21288D01*
X47635Y-21174D01*
X47386Y-21070D01*
X47115Y-21070D01*
X46865Y-21173D01*
X46788Y-21250D01*
X46211Y-21250D01*
X46135Y-21174D01*
X45886Y-21070D01*
X45615Y-21070D01*
X45365Y-21173D01*
X45250Y-21288D01*
X45135Y-21174D01*
X44886Y-21070D01*
X44615Y-21070D01*
X44365Y-21173D01*
X44288Y-21250D01*
X43711Y-21250D01*
X43635Y-21174D01*
X43386Y-21070D01*
X43115Y-21070D01*
X42865Y-21173D01*
X42750Y-21288D01*
X42635Y-21174D01*
X42386Y-21070D01*
X42115Y-21070D01*
X41865Y-21173D01*
X41788Y-21250D01*
X41211Y-21250D01*
X41135Y-21174D01*
X40886Y-21070D01*
X40615Y-21070D01*
X40365Y-21173D01*
X40250Y-21288D01*
X40135Y-21174D01*
X39886Y-21070D01*
X39615Y-21070D01*
X39365Y-21173D01*
X39288Y-21250D01*
X38418Y-21250D01*
X38368Y-21200D01*
X38129Y-21101D01*
X37871Y-21101D01*
X37632Y-21200D01*
X37450Y-21382D01*
X37351Y-21621D01*
X37351Y-21879D01*
X37450Y-22118D01*
X37632Y-22300D01*
X37871Y-22399D01*
X38129Y-22399D01*
X38368Y-22300D01*
X38418Y-22250D01*
X39288Y-22250D01*
X39365Y-22326D01*
X39614Y-22430D01*
X39885Y-22430D01*
X40135Y-22327D01*
X40249Y-22211D01*
X40365Y-22326D01*
X40614Y-22430D01*
X40885Y-22430D01*
X41135Y-22327D01*
X41211Y-22250D01*
X41788Y-22250D01*
X41865Y-22326D01*
X42114Y-22430D01*
X42385Y-22430D01*
X42635Y-22327D01*
X42749Y-22211D01*
X42865Y-22326D01*
X43114Y-22430D01*
X43385Y-22430D01*
X43635Y-22327D01*
X43711Y-22250D01*
X44288Y-22250D01*
X44365Y-22326D01*
X44614Y-22430D01*
X44885Y-22430D01*
X45135Y-22327D01*
X45249Y-22211D01*
X45365Y-22326D01*
X45614Y-22430D01*
X45885Y-22430D01*
X46135Y-22327D01*
X46211Y-22250D01*
X46788Y-22250D01*
X46865Y-22326D01*
X47114Y-22430D01*
X47385Y-22430D01*
X47635Y-22327D01*
X47749Y-22211D01*
X47865Y-22326D01*
X48114Y-22430D01*
X48385Y-22430D01*
X48635Y-22327D01*
X48711Y-22250D01*
X49288Y-22250D01*
X49365Y-22326D01*
X49614Y-22430D01*
X49885Y-22430D01*
X50135Y-22327D01*
X50249Y-22211D01*
X50365Y-22326D01*
X50382Y-22333D01*
X50396Y-22354D01*
X50851Y-22808D01*
X50851Y-22879D01*
X50950Y-23118D01*
X51132Y-23300D01*
X51371Y-23399D01*
X51629Y-23399D01*
X51747Y-23350D01*
X52150Y-23350D01*
X52150Y-26250D01*
X52196Y-26480D01*
X52326Y-26674D01*
X52702Y-27051D01*
X52612Y-27051D01*
X52355Y-27157D01*
X52158Y-27353D01*
X52097Y-27497D01*
X52050Y-27382D01*
X51868Y-27200D01*
X51629Y-27101D01*
X51558Y-27101D01*
X51354Y-26896D01*
X51192Y-26788D01*
X51000Y-26749D01*
X50995Y-26750D01*
X46000Y-26750D01*
X45808Y-26788D01*
X45743Y-26831D01*
X45646Y-26896D01*
X45644Y-26898D01*
X44146Y-28396D01*
X44038Y-28558D01*
X43999Y-28750D01*
X44000Y-28754D01*
X44000Y-29500D01*
X43843Y-29500D01*
X43843Y-29091D01*
X43832Y-28856D01*
X43763Y-28690D01*
X43664Y-28657D01*
X43593Y-28728D01*
X43593Y-28586D01*
X43560Y-28487D01*
X43341Y-28407D01*
X43106Y-28418D01*
X42940Y-28487D01*
X42907Y-28586D01*
X43250Y-28929D01*
X43593Y-28586D01*
X43593Y-28728D01*
X43321Y-29000D01*
X43664Y-29343D01*
X43763Y-29310D01*
X43843Y-29091D01*
X43843Y-29500D01*
X43564Y-29500D01*
X43593Y-29414D01*
X43250Y-29071D01*
X43179Y-29142D01*
X43179Y-29000D01*
X42836Y-28657D01*
X42737Y-28690D01*
X42657Y-28909D01*
X42668Y-29144D01*
X42737Y-29310D01*
X42836Y-29343D01*
X43179Y-29000D01*
X43179Y-29142D01*
X42907Y-29414D01*
X42940Y-29513D01*
X43040Y-29549D01*
X42993Y-29581D01*
X42896Y-29646D01*
X42894Y-29648D01*
X41396Y-31146D01*
X41288Y-31308D01*
X41249Y-31500D01*
X41250Y-31504D01*
X41250Y-32866D01*
X41220Y-32896D01*
X41125Y-33125D01*
X41125Y-33374D01*
X41220Y-33604D01*
X41396Y-33780D01*
X41625Y-33875D01*
X41874Y-33875D01*
X42104Y-33780D01*
X42250Y-33634D01*
X42396Y-33780D01*
X42625Y-33875D01*
X42874Y-33875D01*
X43104Y-33780D01*
X43250Y-33634D01*
X43250Y-34042D01*
X42396Y-34896D01*
X42288Y-35058D01*
X42249Y-35250D01*
X42250Y-35254D01*
X42250Y-35866D01*
X42249Y-35866D01*
X42236Y-35834D01*
X42166Y-35764D01*
X42074Y-35726D01*
X41862Y-35725D01*
X41800Y-35787D01*
X41800Y-36150D01*
X41800Y-36200D01*
X41800Y-36300D01*
X41800Y-36350D01*
X41800Y-36713D01*
X41814Y-36727D01*
X41700Y-36841D01*
X41700Y-36713D01*
X41700Y-36300D01*
X41700Y-36200D01*
X41700Y-35787D01*
X41638Y-35725D01*
X41426Y-35726D01*
X41334Y-35764D01*
X41264Y-35834D01*
X41226Y-35925D01*
X41226Y-36024D01*
X41225Y-36138D01*
X41287Y-36200D01*
X41700Y-36200D01*
X41700Y-36300D01*
X41287Y-36300D01*
X41225Y-36362D01*
X41226Y-36476D01*
X41226Y-36575D01*
X41264Y-36666D01*
X41334Y-36736D01*
X41426Y-36774D01*
X41638Y-36775D01*
X41700Y-36713D01*
X41700Y-36841D01*
X40991Y-37551D01*
X40331Y-37551D01*
X40203Y-37604D01*
X40104Y-37702D01*
X40051Y-37830D01*
X40051Y-37969D01*
X40051Y-38669D01*
X40084Y-38750D01*
X39238Y-38750D01*
X39342Y-38647D01*
X39449Y-38390D01*
X39449Y-38112D01*
X39418Y-38038D01*
X40101Y-37355D01*
X40103Y-37354D01*
X40104Y-37354D01*
X40168Y-37256D01*
X40212Y-37192D01*
X40212Y-37191D01*
X40250Y-37000D01*
X40250Y-35668D01*
X40300Y-35618D01*
X40399Y-35379D01*
X40399Y-35121D01*
X40300Y-34882D01*
X40250Y-34832D01*
X40250Y-31707D01*
X41101Y-30855D01*
X41103Y-30854D01*
X41104Y-30854D01*
X41168Y-30756D01*
X41212Y-30692D01*
X41212Y-30691D01*
X41250Y-30500D01*
X41250Y-29957D01*
X41508Y-29699D01*
X41669Y-29699D01*
X41797Y-29646D01*
X41896Y-29548D01*
X41949Y-29420D01*
X41949Y-29281D01*
X41949Y-28581D01*
X41896Y-28453D01*
X41798Y-28354D01*
X41670Y-28301D01*
X41531Y-28301D01*
X40831Y-28301D01*
X40703Y-28354D01*
X40604Y-28452D01*
X40551Y-28580D01*
X40551Y-28719D01*
X40551Y-29241D01*
X40396Y-29396D01*
X40288Y-29558D01*
X40249Y-29750D01*
X40250Y-29754D01*
X40250Y-29832D01*
X40118Y-29700D01*
X39879Y-29601D01*
X39621Y-29601D01*
X39382Y-29700D01*
X39200Y-29882D01*
X39101Y-30121D01*
X39101Y-30191D01*
X39039Y-30253D01*
X39032Y-30116D01*
X38972Y-29969D01*
X38878Y-29942D01*
X38808Y-30012D01*
X38808Y-29872D01*
X38781Y-29778D01*
X38579Y-29707D01*
X38543Y-29708D01*
X38543Y-26829D01*
X38532Y-26616D01*
X38472Y-26469D01*
X38378Y-26442D01*
X38308Y-26512D01*
X38308Y-26372D01*
X38281Y-26278D01*
X38079Y-26207D01*
X37866Y-26218D01*
X37719Y-26278D01*
X37692Y-26372D01*
X38000Y-26679D01*
X38308Y-26372D01*
X38308Y-26512D01*
X38071Y-26750D01*
X38378Y-27058D01*
X38472Y-27031D01*
X38543Y-26829D01*
X38543Y-29708D01*
X38366Y-29718D01*
X38308Y-29741D01*
X38308Y-27128D01*
X38000Y-26821D01*
X37692Y-27128D01*
X37719Y-27222D01*
X37921Y-27293D01*
X38134Y-27282D01*
X38281Y-27222D01*
X38308Y-27128D01*
X38308Y-29741D01*
X38219Y-29778D01*
X38192Y-29872D01*
X38500Y-30179D01*
X38808Y-29872D01*
X38808Y-30012D01*
X38571Y-30250D01*
X38500Y-30321D01*
X38429Y-30391D01*
X38429Y-30250D01*
X38122Y-29942D01*
X38028Y-29969D01*
X37957Y-30171D01*
X37968Y-30384D01*
X38028Y-30531D01*
X38122Y-30558D01*
X38429Y-30250D01*
X38429Y-30391D01*
X38192Y-30628D01*
X38219Y-30722D01*
X38298Y-30750D01*
X38207Y-30750D01*
X37500Y-30042D01*
X37500Y-26962D01*
X37528Y-27031D01*
X37622Y-27058D01*
X37929Y-26750D01*
X37622Y-26442D01*
X37528Y-26469D01*
X37500Y-26548D01*
X37500Y-25957D01*
X37707Y-25750D01*
X38788Y-25750D01*
X38865Y-25826D01*
X39114Y-25930D01*
X39385Y-25930D01*
X39635Y-25827D01*
X39749Y-25711D01*
X39865Y-25826D01*
X40114Y-25930D01*
X40385Y-25930D01*
X40635Y-25827D01*
X40711Y-25750D01*
X41288Y-25750D01*
X41365Y-25826D01*
X41614Y-25930D01*
X41885Y-25930D01*
X42135Y-25827D01*
X42249Y-25711D01*
X42365Y-25826D01*
X42614Y-25930D01*
X42885Y-25930D01*
X43135Y-25827D01*
X43211Y-25750D01*
X43788Y-25750D01*
X43865Y-25826D01*
X44114Y-25930D01*
X44385Y-25930D01*
X44635Y-25827D01*
X44749Y-25711D01*
X44865Y-25826D01*
X45114Y-25930D01*
X45385Y-25930D01*
X45635Y-25827D01*
X45711Y-25750D01*
X46288Y-25750D01*
X46365Y-25826D01*
X46614Y-25930D01*
X46885Y-25930D01*
X47135Y-25827D01*
X47249Y-25711D01*
X47365Y-25826D01*
X47614Y-25930D01*
X47885Y-25930D01*
X48135Y-25827D01*
X48211Y-25750D01*
X48788Y-25750D01*
X48865Y-25826D01*
X49114Y-25930D01*
X49385Y-25930D01*
X49635Y-25827D01*
X49749Y-25711D01*
X49865Y-25826D01*
X50114Y-25930D01*
X50385Y-25930D01*
X50635Y-25827D01*
X50826Y-25635D01*
X50930Y-25386D01*
X50930Y-25115D01*
X50827Y-24865D01*
X50635Y-24674D01*
X50386Y-24570D01*
X50115Y-24570D01*
X49865Y-24673D01*
X49750Y-24788D01*
X49635Y-24674D01*
X49386Y-24570D01*
X49115Y-24570D01*
X48865Y-24673D01*
X48788Y-24750D01*
X48211Y-24750D01*
X48135Y-24674D01*
X47886Y-24570D01*
X47615Y-24570D01*
X47365Y-24673D01*
X47250Y-24788D01*
X47135Y-24674D01*
X46886Y-24570D01*
X46615Y-24570D01*
X46365Y-24673D01*
X46288Y-24750D01*
X45711Y-24750D01*
X45635Y-24674D01*
X45386Y-24570D01*
X45115Y-24570D01*
X44865Y-24673D01*
X44750Y-24788D01*
X44635Y-24674D01*
X44386Y-24570D01*
X44115Y-24570D01*
X43865Y-24673D01*
X43788Y-24750D01*
X43211Y-24750D01*
X43135Y-24674D01*
X42886Y-24570D01*
X42615Y-24570D01*
X42365Y-24673D01*
X42250Y-24788D01*
X42135Y-24674D01*
X41886Y-24570D01*
X41615Y-24570D01*
X41365Y-24673D01*
X41288Y-24750D01*
X40711Y-24750D01*
X40635Y-24674D01*
X40386Y-24570D01*
X40115Y-24570D01*
X39865Y-24673D01*
X39750Y-24788D01*
X39635Y-24674D01*
X39386Y-24570D01*
X39115Y-24570D01*
X38865Y-24673D01*
X38788Y-24750D01*
X37504Y-24750D01*
X37500Y-24749D01*
X37308Y-24788D01*
X37243Y-24831D01*
X37146Y-24896D01*
X37144Y-24898D01*
X36646Y-25396D01*
X36538Y-25558D01*
X36499Y-25750D01*
X36500Y-25754D01*
X36500Y-30245D01*
X36499Y-30250D01*
X36538Y-30442D01*
X36646Y-30604D01*
X37644Y-31601D01*
X37646Y-31604D01*
X37743Y-31668D01*
X37808Y-31712D01*
X37809Y-31712D01*
X38000Y-31750D01*
X38745Y-31750D01*
X38750Y-31751D01*
X38750Y-31750D01*
X38941Y-31712D01*
X38942Y-31712D01*
X39104Y-31604D01*
X39259Y-31448D01*
X39249Y-31500D01*
X39250Y-31504D01*
X39250Y-34832D01*
X39200Y-34882D01*
X39125Y-35063D01*
X39050Y-34882D01*
X38868Y-34700D01*
X38629Y-34601D01*
X38371Y-34601D01*
X38132Y-34700D01*
X37950Y-34882D01*
X37851Y-35121D01*
X37851Y-35379D01*
X37950Y-35618D01*
X38000Y-35668D01*
X38000Y-36792D01*
X37396Y-37396D01*
X37288Y-37558D01*
X37249Y-37750D01*
X37250Y-37754D01*
X37250Y-38495D01*
X37249Y-38500D01*
X37288Y-38692D01*
X37396Y-38854D01*
X38144Y-39601D01*
X38146Y-39604D01*
X38308Y-39711D01*
X38309Y-39712D01*
X38500Y-39750D01*
X43245Y-39750D01*
X43250Y-39751D01*
X43250Y-39750D01*
X43441Y-39712D01*
X43442Y-39712D01*
X43604Y-39604D01*
X43808Y-39399D01*
X43879Y-39399D01*
X44118Y-39300D01*
X44234Y-39184D01*
X44235Y-39182D01*
X44354Y-39104D01*
X47101Y-36355D01*
X47103Y-36354D01*
X47104Y-36354D01*
X47168Y-36256D01*
X47212Y-36192D01*
X47212Y-36191D01*
X47250Y-36000D01*
X47251Y-36000D01*
X47250Y-35995D01*
X47250Y-35711D01*
X47365Y-35826D01*
X47614Y-35930D01*
X47885Y-35930D01*
X48135Y-35827D01*
X48211Y-35750D01*
X48788Y-35750D01*
X48865Y-35826D01*
X49114Y-35930D01*
X49385Y-35930D01*
X49635Y-35827D01*
X49749Y-35711D01*
X49865Y-35826D01*
X50114Y-35930D01*
X50385Y-35930D01*
X50635Y-35827D01*
X50711Y-35750D01*
X51288Y-35750D01*
X51365Y-35826D01*
X51614Y-35930D01*
X51885Y-35930D01*
X52135Y-35827D01*
X52249Y-35711D01*
X52365Y-35826D01*
X52614Y-35930D01*
X52885Y-35930D01*
X53135Y-35827D01*
X53211Y-35750D01*
X53788Y-35750D01*
X53865Y-35826D01*
X54114Y-35930D01*
X54385Y-35930D01*
X54635Y-35827D01*
X54749Y-35711D01*
X54865Y-35826D01*
X55114Y-35930D01*
X55385Y-35930D01*
X55635Y-35827D01*
X55711Y-35750D01*
X56288Y-35750D01*
X56365Y-35826D01*
X56614Y-35930D01*
X56885Y-35930D01*
X57135Y-35827D01*
X57249Y-35711D01*
X57365Y-35826D01*
X57614Y-35930D01*
X57885Y-35930D01*
X58135Y-35827D01*
X58326Y-35635D01*
X58430Y-35386D01*
X58430Y-35115D01*
X58350Y-34920D01*
X58350Y-33500D01*
X58350Y-31750D01*
X58304Y-31521D01*
X58304Y-31520D01*
X58174Y-31326D01*
X54600Y-27752D01*
X54600Y-27500D01*
X54599Y-27499D01*
X54554Y-27270D01*
X54424Y-27076D01*
X54424Y-27075D01*
X53350Y-26001D01*
X53350Y-23343D01*
X53396Y-23298D01*
X53449Y-23170D01*
X53449Y-23031D01*
X53449Y-22331D01*
X53427Y-22279D01*
X53457Y-22250D01*
X54038Y-22250D01*
X54115Y-22326D01*
X54364Y-22430D01*
X54635Y-22430D01*
X54885Y-22327D01*
X54999Y-22211D01*
X55115Y-22326D01*
X55364Y-22430D01*
X55635Y-22430D01*
X55885Y-22327D01*
X55961Y-22250D01*
X56538Y-22250D01*
X56615Y-22326D01*
X56864Y-22430D01*
X57135Y-22430D01*
X57385Y-22327D01*
X57499Y-22211D01*
X57615Y-22326D01*
X57864Y-22430D01*
X58135Y-22430D01*
X58385Y-22327D01*
X58461Y-22250D01*
X59038Y-22250D01*
X59115Y-22326D01*
X59364Y-22430D01*
X59635Y-22430D01*
X59885Y-22327D01*
X59999Y-22211D01*
X60115Y-22326D01*
X60364Y-22430D01*
X60635Y-22430D01*
X60885Y-22327D01*
X60961Y-22250D01*
X61538Y-22250D01*
X61615Y-22326D01*
X61864Y-22430D01*
X62135Y-22430D01*
X62385Y-22327D01*
X62499Y-22211D01*
X62615Y-22326D01*
X62864Y-22430D01*
X63135Y-22430D01*
X63385Y-22327D01*
X63461Y-22250D01*
X64038Y-22250D01*
X64115Y-22326D01*
X64364Y-22430D01*
X64635Y-22430D01*
X64885Y-22327D01*
X64999Y-22211D01*
X65115Y-22326D01*
X65308Y-22406D01*
X65650Y-22748D01*
X65650Y-24688D01*
X65635Y-24674D01*
X65386Y-24570D01*
X65115Y-24570D01*
X64865Y-24673D01*
X64750Y-24788D01*
X64635Y-24674D01*
X64386Y-24570D01*
X64115Y-24570D01*
X63865Y-24673D01*
X63788Y-24750D01*
X63211Y-24750D01*
X63135Y-24674D01*
X62886Y-24570D01*
X62615Y-24570D01*
X62365Y-24673D01*
X62250Y-24788D01*
X62135Y-24674D01*
X61886Y-24570D01*
X61615Y-24570D01*
X61365Y-24673D01*
X61288Y-24750D01*
X60711Y-24750D01*
X60635Y-24674D01*
X60386Y-24570D01*
X60115Y-24570D01*
X59865Y-24673D01*
X59750Y-24788D01*
X59635Y-24674D01*
X59386Y-24570D01*
X59115Y-24570D01*
X58865Y-24673D01*
X58788Y-24750D01*
X58211Y-24750D01*
X58135Y-24674D01*
X57886Y-24570D01*
X57615Y-24570D01*
X57365Y-24673D01*
X57250Y-24788D01*
X57135Y-24674D01*
X56886Y-24570D01*
X56615Y-24570D01*
X56365Y-24673D01*
X56288Y-24750D01*
X55711Y-24750D01*
X55635Y-24674D01*
X55386Y-24570D01*
X55115Y-24570D01*
X54865Y-24673D01*
X54750Y-24788D01*
X54635Y-24674D01*
X54386Y-24570D01*
X54115Y-24570D01*
X53865Y-24673D01*
X53674Y-24865D01*
X53570Y-25114D01*
X53570Y-25385D01*
X53673Y-25635D01*
X53678Y-25640D01*
X53696Y-25729D01*
X53826Y-25924D01*
X54575Y-26674D01*
X54576Y-26674D01*
X54770Y-26804D01*
X55000Y-26850D01*
X57752Y-26850D01*
X58400Y-27498D01*
X58400Y-30800D01*
X58446Y-31030D01*
X58576Y-31224D01*
X59350Y-31998D01*
X59350Y-32656D01*
X59304Y-32702D01*
X59251Y-32830D01*
X59251Y-32969D01*
X59251Y-33669D01*
X59304Y-33797D01*
X59402Y-33896D01*
X59530Y-33949D01*
X59669Y-33949D01*
X60369Y-33949D01*
X60497Y-33896D01*
X60596Y-33798D01*
X60649Y-33670D01*
X60649Y-33531D01*
X60649Y-32831D01*
X60596Y-32703D01*
X60550Y-32656D01*
X60550Y-31997D01*
X60599Y-31879D01*
X60599Y-31621D01*
X60543Y-31485D01*
X60543Y-30329D01*
X60543Y-28829D01*
X60543Y-27329D01*
X60532Y-27116D01*
X60472Y-26969D01*
X60378Y-26942D01*
X60308Y-27012D01*
X60308Y-26872D01*
X60281Y-26778D01*
X60079Y-26707D01*
X59866Y-26718D01*
X59719Y-26778D01*
X59692Y-26872D01*
X60000Y-27179D01*
X60308Y-26872D01*
X60308Y-27012D01*
X60071Y-27250D01*
X60378Y-27558D01*
X60472Y-27531D01*
X60543Y-27329D01*
X60543Y-28829D01*
X60532Y-28616D01*
X60472Y-28469D01*
X60378Y-28442D01*
X60308Y-28512D01*
X60308Y-28372D01*
X60308Y-27628D01*
X60000Y-27321D01*
X59692Y-27628D01*
X59719Y-27722D01*
X59921Y-27793D01*
X60134Y-27782D01*
X60281Y-27722D01*
X60308Y-27628D01*
X60308Y-28372D01*
X60281Y-28278D01*
X60079Y-28207D01*
X59866Y-28218D01*
X59719Y-28278D01*
X59692Y-28372D01*
X60000Y-28679D01*
X60308Y-28372D01*
X60308Y-28512D01*
X60071Y-28750D01*
X60378Y-29058D01*
X60472Y-29031D01*
X60543Y-28829D01*
X60543Y-30329D01*
X60532Y-30116D01*
X60472Y-29969D01*
X60378Y-29942D01*
X60308Y-30012D01*
X60308Y-29872D01*
X60308Y-29128D01*
X60000Y-28821D01*
X59692Y-29128D01*
X59719Y-29222D01*
X59921Y-29293D01*
X60134Y-29282D01*
X60281Y-29222D01*
X60308Y-29128D01*
X60308Y-29872D01*
X60281Y-29778D01*
X60079Y-29707D01*
X59866Y-29718D01*
X59719Y-29778D01*
X59692Y-29872D01*
X60000Y-30179D01*
X60308Y-29872D01*
X60308Y-30012D01*
X60071Y-30250D01*
X60378Y-30558D01*
X60472Y-30531D01*
X60543Y-30329D01*
X60543Y-31485D01*
X60500Y-31382D01*
X60318Y-31200D01*
X60199Y-31151D01*
X59798Y-30749D01*
X59921Y-30793D01*
X60134Y-30782D01*
X60281Y-30722D01*
X60308Y-30628D01*
X60035Y-30356D01*
X60000Y-30321D01*
X59929Y-30250D01*
X59894Y-30215D01*
X59622Y-29942D01*
X59600Y-29948D01*
X59600Y-29051D01*
X59622Y-29058D01*
X59929Y-28750D01*
X59622Y-28442D01*
X59600Y-28448D01*
X59600Y-27551D01*
X59622Y-27558D01*
X59929Y-27250D01*
X59622Y-26942D01*
X59528Y-26969D01*
X59525Y-26977D01*
X59424Y-26826D01*
X58424Y-25826D01*
X58310Y-25750D01*
X58788Y-25750D01*
X58865Y-25826D01*
X59114Y-25930D01*
X59385Y-25930D01*
X59635Y-25827D01*
X59749Y-25711D01*
X59865Y-25826D01*
X60114Y-25930D01*
X60385Y-25930D01*
X60635Y-25827D01*
X60711Y-25750D01*
X61288Y-25750D01*
X61365Y-25826D01*
X61614Y-25930D01*
X61885Y-25930D01*
X62135Y-25827D01*
X62249Y-25711D01*
X62365Y-25826D01*
X62614Y-25930D01*
X62885Y-25930D01*
X63135Y-25827D01*
X63211Y-25750D01*
X63788Y-25750D01*
X63865Y-25826D01*
X64114Y-25930D01*
X64385Y-25930D01*
X64635Y-25827D01*
X64749Y-25711D01*
X64750Y-25711D01*
X64750Y-25750D01*
X64750Y-26651D01*
X64632Y-26700D01*
X64450Y-26882D01*
X64351Y-27121D01*
X64351Y-27379D01*
X64450Y-27618D01*
X64632Y-27800D01*
X64871Y-27899D01*
X65002Y-27899D01*
X64751Y-28150D01*
X64632Y-28200D01*
X64450Y-28382D01*
X64351Y-28621D01*
X64351Y-28879D01*
X64450Y-29118D01*
X64632Y-29300D01*
X64871Y-29399D01*
X65129Y-29399D01*
X65368Y-29300D01*
X65550Y-29118D01*
X65599Y-28998D01*
X66575Y-28023D01*
X66575Y-40325D01*
X66575Y-40325D01*
G37*
G54D22*
X66575Y-40325D02*
X66500Y-40325D01*
X66500Y-37500D01*
X66500Y-31500D01*
X66462Y-31309D01*
X66462Y-31308D01*
X66418Y-31243D01*
X66354Y-31146D01*
X66351Y-31144D01*
X65630Y-30423D01*
X65649Y-30379D01*
X65649Y-30121D01*
X65550Y-29882D01*
X65368Y-29700D01*
X65129Y-29601D01*
X64871Y-29601D01*
X64632Y-29700D01*
X64450Y-29882D01*
X64351Y-30121D01*
X64351Y-30379D01*
X64450Y-30618D01*
X64566Y-30734D01*
X64567Y-30735D01*
X64646Y-30854D01*
X64893Y-31101D01*
X64821Y-31101D01*
X64582Y-31200D01*
X64400Y-31382D01*
X64351Y-31499D01*
X61826Y-34026D01*
X61696Y-34220D01*
X61650Y-34450D01*
X61650Y-35250D01*
X59500Y-35250D01*
X59309Y-35288D01*
X59146Y-35396D01*
X59144Y-35398D01*
X56792Y-37750D01*
X55211Y-37750D01*
X55135Y-37674D01*
X54886Y-37570D01*
X54615Y-37570D01*
X54365Y-37673D01*
X54250Y-37788D01*
X54135Y-37674D01*
X53886Y-37570D01*
X53615Y-37570D01*
X53365Y-37673D01*
X53288Y-37750D01*
X51211Y-37750D01*
X51135Y-37674D01*
X50886Y-37570D01*
X50615Y-37570D01*
X50365Y-37673D01*
X50250Y-37788D01*
X50135Y-37674D01*
X49886Y-37570D01*
X49649Y-37570D01*
X49649Y-37371D01*
X49550Y-37132D01*
X49368Y-36950D01*
X49129Y-36851D01*
X48871Y-36851D01*
X48632Y-36950D01*
X48515Y-37066D01*
X48514Y-37067D01*
X48493Y-37081D01*
X48396Y-37146D01*
X48394Y-37148D01*
X47396Y-38146D01*
X47288Y-38308D01*
X47249Y-38500D01*
X47250Y-38504D01*
X47250Y-38995D01*
X47249Y-39000D01*
X47288Y-39192D01*
X47396Y-39354D01*
X48144Y-40101D01*
X48146Y-40104D01*
X48308Y-40211D01*
X48309Y-40212D01*
X48500Y-40250D01*
X57495Y-40250D01*
X57500Y-40251D01*
X57500Y-40250D01*
X57691Y-40212D01*
X57692Y-40212D01*
X57854Y-40104D01*
X59999Y-37957D01*
X60644Y-38601D01*
X60646Y-38604D01*
X60743Y-38668D01*
X60808Y-38712D01*
X60809Y-38712D01*
X61000Y-38750D01*
X65245Y-38750D01*
X65250Y-38751D01*
X65250Y-38750D01*
X65441Y-38712D01*
X65442Y-38712D01*
X65604Y-38604D01*
X66351Y-37855D01*
X66353Y-37854D01*
X66354Y-37854D01*
X66461Y-37692D01*
X66462Y-37691D01*
X66500Y-37500D01*
X66500Y-40325D01*
X36425Y-40325D01*
X36425Y-20675D01*
X66575Y-20675D01*
X66575Y-21976D01*
X66156Y-21558D01*
X66077Y-21365D01*
X65885Y-21174D01*
X65636Y-21070D01*
X65365Y-21070D01*
X65115Y-21173D01*
X65000Y-21288D01*
X64885Y-21174D01*
X64636Y-21070D01*
X64365Y-21070D01*
X64115Y-21173D01*
X64038Y-21250D01*
X63461Y-21250D01*
X63385Y-21174D01*
X63136Y-21070D01*
X62865Y-21070D01*
X62615Y-21173D01*
X62500Y-21288D01*
X62385Y-21174D01*
X62136Y-21070D01*
X61865Y-21070D01*
X61615Y-21173D01*
X61538Y-21250D01*
X60961Y-21250D01*
X60885Y-21174D01*
X60636Y-21070D01*
X60365Y-21070D01*
X60115Y-21173D01*
X60000Y-21288D01*
X59885Y-21174D01*
X59636Y-21070D01*
X59365Y-21070D01*
X59115Y-21173D01*
X59038Y-21250D01*
X58461Y-21250D01*
X58385Y-21174D01*
X58136Y-21070D01*
X57865Y-21070D01*
X57615Y-21173D01*
X57500Y-21288D01*
X57385Y-21174D01*
X57136Y-21070D01*
X56865Y-21070D01*
X56615Y-21173D01*
X56538Y-21250D01*
X55961Y-21250D01*
X55885Y-21174D01*
X55636Y-21070D01*
X55365Y-21070D01*
X55115Y-21173D01*
X55000Y-21288D01*
X54885Y-21174D01*
X54636Y-21070D01*
X54365Y-21070D01*
X54115Y-21173D01*
X54038Y-21250D01*
X53254Y-21250D01*
X53250Y-21249D01*
X53058Y-21288D01*
X52993Y-21331D01*
X52896Y-21396D01*
X52894Y-21398D01*
X52396Y-21896D01*
X52288Y-22058D01*
X52285Y-22069D01*
X52203Y-22104D01*
X52156Y-22150D01*
X51747Y-22150D01*
X51629Y-22101D01*
X51558Y-22101D01*
X51404Y-21946D01*
X51430Y-21886D01*
X51430Y-21615D01*
X51327Y-21365D01*
X51135Y-21174D01*
X50886Y-21070D01*
X50615Y-21070D01*
X50365Y-21173D01*
X50250Y-21288D01*
X50135Y-21174D01*
X49886Y-21070D01*
X49615Y-21070D01*
X49365Y-21173D01*
X49288Y-21250D01*
X48711Y-21250D01*
X48635Y-21174D01*
X48386Y-21070D01*
X48115Y-21070D01*
X47865Y-21173D01*
X47750Y-21288D01*
X47635Y-21174D01*
X47386Y-21070D01*
X47115Y-21070D01*
X46865Y-21173D01*
X46788Y-21250D01*
X46211Y-21250D01*
X46135Y-21174D01*
X45886Y-21070D01*
X45615Y-21070D01*
X45365Y-21173D01*
X45250Y-21288D01*
X45135Y-21174D01*
X44886Y-21070D01*
X44615Y-21070D01*
X44365Y-21173D01*
X44288Y-21250D01*
X43711Y-21250D01*
X43635Y-21174D01*
X43386Y-21070D01*
X43115Y-21070D01*
X42865Y-21173D01*
X42750Y-21288D01*
X42635Y-21174D01*
X42386Y-21070D01*
X42115Y-21070D01*
X41865Y-21173D01*
X41788Y-21250D01*
X41211Y-21250D01*
X41135Y-21174D01*
X40886Y-21070D01*
X40615Y-21070D01*
X40365Y-21173D01*
X40250Y-21288D01*
X40135Y-21174D01*
X39886Y-21070D01*
X39615Y-21070D01*
X39365Y-21173D01*
X39288Y-21250D01*
X38418Y-21250D01*
X38368Y-21200D01*
X38129Y-21101D01*
X37871Y-21101D01*
X37632Y-21200D01*
X37450Y-21382D01*
X37351Y-21621D01*
X37351Y-21879D01*
X37450Y-22118D01*
X37632Y-22300D01*
X37871Y-22399D01*
X38129Y-22399D01*
X38368Y-22300D01*
X38418Y-22250D01*
X39288Y-22250D01*
X39365Y-22326D01*
X39614Y-22430D01*
X39885Y-22430D01*
X40135Y-22327D01*
X40249Y-22211D01*
X40365Y-22326D01*
X40614Y-22430D01*
X40885Y-22430D01*
X41135Y-22327D01*
X41211Y-22250D01*
X41788Y-22250D01*
X41865Y-22326D01*
X42114Y-22430D01*
X42385Y-22430D01*
X42635Y-22327D01*
X42749Y-22211D01*
X42865Y-22326D01*
X43114Y-22430D01*
X43385Y-22430D01*
X43635Y-22327D01*
X43711Y-22250D01*
X44288Y-22250D01*
X44365Y-22326D01*
X44614Y-22430D01*
X44885Y-22430D01*
X45135Y-22327D01*
X45249Y-22211D01*
X45365Y-22326D01*
X45614Y-22430D01*
X45885Y-22430D01*
X46135Y-22327D01*
X46211Y-22250D01*
X46788Y-22250D01*
X46865Y-22326D01*
X47114Y-22430D01*
X47385Y-22430D01*
X47635Y-22327D01*
X47749Y-22211D01*
X47865Y-22326D01*
X48114Y-22430D01*
X48385Y-22430D01*
X48635Y-22327D01*
X48711Y-22250D01*
X49288Y-22250D01*
X49365Y-22326D01*
X49614Y-22430D01*
X49885Y-22430D01*
X50135Y-22327D01*
X50249Y-22211D01*
X50365Y-22326D01*
X50382Y-22333D01*
X50396Y-22354D01*
X50851Y-22808D01*
X50851Y-22879D01*
X50950Y-23118D01*
X51132Y-23300D01*
X51371Y-23399D01*
X51629Y-23399D01*
X51747Y-23350D01*
X52150Y-23350D01*
X52150Y-26250D01*
X52196Y-26480D01*
X52326Y-26674D01*
X52702Y-27051D01*
X52612Y-27051D01*
X52355Y-27157D01*
X52158Y-27353D01*
X52097Y-27497D01*
X52050Y-27382D01*
X51868Y-27200D01*
X51629Y-27101D01*
X51558Y-27101D01*
X51354Y-26896D01*
X51192Y-26788D01*
X51000Y-26749D01*
X50995Y-26750D01*
X46000Y-26750D01*
X45808Y-26788D01*
X45743Y-26831D01*
X45646Y-26896D01*
X45644Y-26898D01*
X44146Y-28396D01*
X44038Y-28558D01*
X43999Y-28750D01*
X44000Y-28754D01*
X44000Y-29500D01*
X43843Y-29500D01*
X43843Y-29091D01*
X43832Y-28856D01*
X43763Y-28690D01*
X43664Y-28657D01*
X43593Y-28728D01*
X43593Y-28586D01*
X43560Y-28487D01*
X43341Y-28407D01*
X43106Y-28418D01*
X42940Y-28487D01*
X42907Y-28586D01*
X43250Y-28929D01*
X43593Y-28586D01*
X43593Y-28728D01*
X43321Y-29000D01*
X43664Y-29343D01*
X43763Y-29310D01*
X43843Y-29091D01*
X43843Y-29500D01*
X43564Y-29500D01*
X43593Y-29414D01*
X43250Y-29071D01*
X43179Y-29142D01*
X43179Y-29000D01*
X42836Y-28657D01*
X42737Y-28690D01*
X42657Y-28909D01*
X42668Y-29144D01*
X42737Y-29310D01*
X42836Y-29343D01*
X43179Y-29000D01*
X43179Y-29142D01*
X42907Y-29414D01*
X42940Y-29513D01*
X43040Y-29549D01*
X42993Y-29581D01*
X42896Y-29646D01*
X42894Y-29648D01*
X41396Y-31146D01*
X41288Y-31308D01*
X41249Y-31500D01*
X41250Y-31504D01*
X41250Y-32866D01*
X41220Y-32896D01*
X41125Y-33125D01*
X41125Y-33374D01*
X41220Y-33604D01*
X41396Y-33780D01*
X41625Y-33875D01*
X41874Y-33875D01*
X42104Y-33780D01*
X42250Y-33634D01*
X42396Y-33780D01*
X42625Y-33875D01*
X42874Y-33875D01*
X43104Y-33780D01*
X43250Y-33634D01*
X43250Y-34042D01*
X42396Y-34896D01*
X42288Y-35058D01*
X42249Y-35250D01*
X42250Y-35254D01*
X42250Y-35866D01*
X42249Y-35866D01*
X42236Y-35834D01*
X42166Y-35764D01*
X42074Y-35726D01*
X41862Y-35725D01*
X41800Y-35787D01*
X41800Y-36150D01*
X41800Y-36200D01*
X41800Y-36300D01*
X41800Y-36350D01*
X41800Y-36713D01*
X41814Y-36727D01*
X41700Y-36841D01*
X41700Y-36713D01*
X41700Y-36300D01*
X41700Y-36200D01*
X41700Y-35787D01*
X41638Y-35725D01*
X41426Y-35726D01*
X41334Y-35764D01*
X41264Y-35834D01*
X41226Y-35925D01*
X41226Y-36024D01*
X41225Y-36138D01*
X41287Y-36200D01*
X41700Y-36200D01*
X41700Y-36300D01*
X41287Y-36300D01*
X41225Y-36362D01*
X41226Y-36476D01*
X41226Y-36575D01*
X41264Y-36666D01*
X41334Y-36736D01*
X41426Y-36774D01*
X41638Y-36775D01*
X41700Y-36713D01*
X41700Y-36841D01*
X40991Y-37551D01*
X40331Y-37551D01*
X40203Y-37604D01*
X40104Y-37702D01*
X40051Y-37830D01*
X40051Y-37969D01*
X40051Y-38669D01*
X40084Y-38750D01*
X39238Y-38750D01*
X39342Y-38647D01*
X39449Y-38390D01*
X39449Y-38112D01*
X39418Y-38038D01*
X40101Y-37355D01*
X40103Y-37354D01*
X40104Y-37354D01*
X40168Y-37256D01*
X40212Y-37192D01*
X40212Y-37191D01*
X40250Y-37000D01*
X40250Y-35668D01*
X40300Y-35618D01*
X40399Y-35379D01*
X40399Y-35121D01*
X40300Y-34882D01*
X40250Y-34832D01*
X40250Y-31707D01*
X41101Y-30855D01*
X41103Y-30854D01*
X41104Y-30854D01*
X41168Y-30756D01*
X41212Y-30692D01*
X41212Y-30691D01*
X41250Y-30500D01*
X41250Y-29957D01*
X41508Y-29699D01*
X41669Y-29699D01*
X41797Y-29646D01*
X41896Y-29548D01*
X41949Y-29420D01*
X41949Y-29281D01*
X41949Y-28581D01*
X41896Y-28453D01*
X41798Y-28354D01*
X41670Y-28301D01*
X41531Y-28301D01*
X40831Y-28301D01*
X40703Y-28354D01*
X40604Y-28452D01*
X40551Y-28580D01*
X40551Y-28719D01*
X40551Y-29241D01*
X40396Y-29396D01*
X40288Y-29558D01*
X40249Y-29750D01*
X40250Y-29754D01*
X40250Y-29832D01*
X40118Y-29700D01*
X39879Y-29601D01*
X39621Y-29601D01*
X39382Y-29700D01*
X39200Y-29882D01*
X39101Y-30121D01*
X39101Y-30191D01*
X39039Y-30253D01*
X39032Y-30116D01*
X38972Y-29969D01*
X38878Y-29942D01*
X38808Y-30012D01*
X38808Y-29872D01*
X38781Y-29778D01*
X38579Y-29707D01*
X38543Y-29708D01*
X38543Y-26829D01*
X38532Y-26616D01*
X38472Y-26469D01*
X38378Y-26442D01*
X38308Y-26512D01*
X38308Y-26372D01*
X38281Y-26278D01*
X38079Y-26207D01*
X37866Y-26218D01*
X37719Y-26278D01*
X37692Y-26372D01*
X38000Y-26679D01*
X38308Y-26372D01*
X38308Y-26512D01*
X38071Y-26750D01*
X38378Y-27058D01*
X38472Y-27031D01*
X38543Y-26829D01*
X38543Y-29708D01*
X38366Y-29718D01*
X38308Y-29741D01*
X38308Y-27128D01*
X38000Y-26821D01*
X37692Y-27128D01*
X37719Y-27222D01*
X37921Y-27293D01*
X38134Y-27282D01*
X38281Y-27222D01*
X38308Y-27128D01*
X38308Y-29741D01*
X38219Y-29778D01*
X38192Y-29872D01*
X38500Y-30179D01*
X38808Y-29872D01*
X38808Y-30012D01*
X38571Y-30250D01*
X38500Y-30321D01*
X38429Y-30391D01*
X38429Y-30250D01*
X38122Y-29942D01*
X38028Y-29969D01*
X37957Y-30171D01*
X37968Y-30384D01*
X38028Y-30531D01*
X38122Y-30558D01*
X38429Y-30250D01*
X38429Y-30391D01*
X38192Y-30628D01*
X38219Y-30722D01*
X38298Y-30750D01*
X38207Y-30750D01*
X37500Y-30042D01*
X37500Y-26962D01*
X37528Y-27031D01*
X37622Y-27058D01*
X37929Y-26750D01*
X37622Y-26442D01*
X37528Y-26469D01*
X37500Y-26548D01*
X37500Y-25957D01*
X37707Y-25750D01*
X38788Y-25750D01*
X38865Y-25826D01*
X39114Y-25930D01*
X39385Y-25930D01*
X39635Y-25827D01*
X39749Y-25711D01*
X39865Y-25826D01*
X40114Y-25930D01*
X40385Y-25930D01*
X40635Y-25827D01*
X40711Y-25750D01*
X41288Y-25750D01*
X41365Y-25826D01*
X41614Y-25930D01*
X41885Y-25930D01*
X42135Y-25827D01*
X42249Y-25711D01*
X42365Y-25826D01*
X42614Y-25930D01*
X42885Y-25930D01*
X43135Y-25827D01*
X43211Y-25750D01*
X43788Y-25750D01*
X43865Y-25826D01*
X44114Y-25930D01*
X44385Y-25930D01*
X44635Y-25827D01*
X44749Y-25711D01*
X44865Y-25826D01*
X45114Y-25930D01*
X45385Y-25930D01*
X45635Y-25827D01*
X45711Y-25750D01*
X46288Y-25750D01*
X46365Y-25826D01*
X46614Y-25930D01*
X46885Y-25930D01*
X47135Y-25827D01*
X47249Y-25711D01*
X47365Y-25826D01*
X47614Y-25930D01*
X47885Y-25930D01*
X48135Y-25827D01*
X48211Y-25750D01*
X48788Y-25750D01*
X48865Y-25826D01*
X49114Y-25930D01*
X49385Y-25930D01*
X49635Y-25827D01*
X49749Y-25711D01*
X49865Y-25826D01*
X50114Y-25930D01*
X50385Y-25930D01*
X50635Y-25827D01*
X50826Y-25635D01*
X50930Y-25386D01*
X50930Y-25115D01*
X50827Y-24865D01*
X50635Y-24674D01*
X50386Y-24570D01*
X50115Y-24570D01*
X49865Y-24673D01*
X49750Y-24788D01*
X49635Y-24674D01*
X49386Y-24570D01*
X49115Y-24570D01*
X48865Y-24673D01*
X48788Y-24750D01*
X48211Y-24750D01*
X48135Y-24674D01*
X47886Y-24570D01*
X47615Y-24570D01*
X47365Y-24673D01*
X47250Y-24788D01*
X47135Y-24674D01*
X46886Y-24570D01*
X46615Y-24570D01*
X46365Y-24673D01*
X46288Y-24750D01*
X45711Y-24750D01*
X45635Y-24674D01*
X45386Y-24570D01*
X45115Y-24570D01*
X44865Y-24673D01*
X44750Y-24788D01*
X44635Y-24674D01*
X44386Y-24570D01*
X44115Y-24570D01*
X43865Y-24673D01*
X43788Y-24750D01*
X43211Y-24750D01*
X43135Y-24674D01*
X42886Y-24570D01*
X42615Y-24570D01*
X42365Y-24673D01*
X42250Y-24788D01*
X42135Y-24674D01*
X41886Y-24570D01*
X41615Y-24570D01*
X41365Y-24673D01*
X41288Y-24750D01*
X40711Y-24750D01*
X40635Y-24674D01*
X40386Y-24570D01*
X40115Y-24570D01*
X39865Y-24673D01*
X39750Y-24788D01*
X39635Y-24674D01*
X39386Y-24570D01*
X39115Y-24570D01*
X38865Y-24673D01*
X38788Y-24750D01*
X37504Y-24750D01*
X37500Y-24749D01*
X37308Y-24788D01*
X37243Y-24831D01*
X37146Y-24896D01*
X37144Y-24898D01*
X36646Y-25396D01*
X36538Y-25558D01*
X36499Y-25750D01*
X36500Y-25754D01*
X36500Y-30245D01*
X36499Y-30250D01*
X36538Y-30442D01*
X36646Y-30604D01*
X37644Y-31601D01*
X37646Y-31604D01*
X37743Y-31668D01*
X37808Y-31712D01*
X37809Y-31712D01*
X38000Y-31750D01*
X38745Y-31750D01*
X38750Y-31751D01*
X38750Y-31750D01*
X38941Y-31712D01*
X38942Y-31712D01*
X39104Y-31604D01*
X39259Y-31448D01*
X39249Y-31500D01*
X39250Y-31504D01*
X39250Y-34832D01*
X39200Y-34882D01*
X39125Y-35063D01*
X39050Y-34882D01*
X38868Y-34700D01*
X38629Y-34601D01*
X38371Y-34601D01*
X38132Y-34700D01*
X37950Y-34882D01*
X37851Y-35121D01*
X37851Y-35379D01*
X37950Y-35618D01*
X38000Y-35668D01*
X38000Y-36792D01*
X37396Y-37396D01*
X37288Y-37558D01*
X37249Y-37750D01*
X37250Y-37754D01*
X37250Y-38495D01*
X37249Y-38500D01*
X37288Y-38692D01*
X37396Y-38854D01*
X38144Y-39601D01*
X38146Y-39604D01*
X38308Y-39711D01*
X38309Y-39712D01*
X38500Y-39750D01*
X43245Y-39750D01*
X43250Y-39751D01*
X43250Y-39750D01*
X43441Y-39712D01*
X43442Y-39712D01*
X43604Y-39604D01*
X43808Y-39399D01*
X43879Y-39399D01*
X44118Y-39300D01*
X44234Y-39184D01*
X44235Y-39182D01*
X44354Y-39104D01*
X47101Y-36355D01*
X47103Y-36354D01*
X47104Y-36354D01*
X47168Y-36256D01*
X47212Y-36192D01*
X47212Y-36191D01*
X47250Y-36000D01*
X47251Y-36000D01*
X47250Y-35995D01*
X47250Y-35711D01*
X47365Y-35826D01*
X47614Y-35930D01*
X47885Y-35930D01*
X48135Y-35827D01*
X48211Y-35750D01*
X48788Y-35750D01*
X48865Y-35826D01*
X49114Y-35930D01*
X49385Y-35930D01*
X49635Y-35827D01*
X49749Y-35711D01*
X49865Y-35826D01*
X50114Y-35930D01*
X50385Y-35930D01*
X50635Y-35827D01*
X50711Y-35750D01*
X51288Y-35750D01*
X51365Y-35826D01*
X51614Y-35930D01*
X51885Y-35930D01*
X52135Y-35827D01*
X52249Y-35711D01*
X52365Y-35826D01*
X52614Y-35930D01*
X52885Y-35930D01*
X53135Y-35827D01*
X53211Y-35750D01*
X53788Y-35750D01*
X53865Y-35826D01*
X54114Y-35930D01*
X54385Y-35930D01*
X54635Y-35827D01*
X54749Y-35711D01*
X54865Y-35826D01*
X55114Y-35930D01*
X55385Y-35930D01*
X55635Y-35827D01*
X55711Y-35750D01*
X56288Y-35750D01*
X56365Y-35826D01*
X56614Y-35930D01*
X56885Y-35930D01*
X57135Y-35827D01*
X57249Y-35711D01*
X57365Y-35826D01*
X57614Y-35930D01*
X57885Y-35930D01*
X58135Y-35827D01*
X58326Y-35635D01*
X58430Y-35386D01*
X58430Y-35115D01*
X58350Y-34920D01*
X58350Y-33500D01*
X58350Y-31750D01*
X58304Y-31521D01*
X58304Y-31520D01*
X58174Y-31326D01*
X54600Y-27752D01*
X54600Y-27500D01*
X54599Y-27499D01*
X54554Y-27270D01*
X54424Y-27076D01*
X54424Y-27075D01*
X53350Y-26001D01*
X53350Y-23343D01*
X53396Y-23298D01*
X53449Y-23170D01*
X53449Y-23031D01*
X53449Y-22331D01*
X53427Y-22279D01*
X53457Y-22250D01*
X54038Y-22250D01*
X54115Y-22326D01*
X54364Y-22430D01*
X54635Y-22430D01*
X54885Y-22327D01*
X54999Y-22211D01*
X55115Y-22326D01*
X55364Y-22430D01*
X55635Y-22430D01*
X55885Y-22327D01*
X55961Y-22250D01*
X56538Y-22250D01*
X56615Y-22326D01*
X56864Y-22430D01*
X57135Y-22430D01*
X57385Y-22327D01*
X57499Y-22211D01*
X57615Y-22326D01*
X57864Y-22430D01*
X58135Y-22430D01*
X58385Y-22327D01*
X58461Y-22250D01*
X59038Y-22250D01*
X59115Y-22326D01*
X59364Y-22430D01*
X59635Y-22430D01*
X59885Y-22327D01*
X59999Y-22211D01*
X60115Y-22326D01*
X60364Y-22430D01*
X60635Y-22430D01*
X60885Y-22327D01*
X60961Y-22250D01*
X61538Y-22250D01*
X61615Y-22326D01*
X61864Y-22430D01*
X62135Y-22430D01*
X62385Y-22327D01*
X62499Y-22211D01*
X62615Y-22326D01*
X62864Y-22430D01*
X63135Y-22430D01*
X63385Y-22327D01*
X63461Y-22250D01*
X64038Y-22250D01*
X64115Y-22326D01*
X64364Y-22430D01*
X64635Y-22430D01*
X64885Y-22327D01*
X64999Y-22211D01*
X65115Y-22326D01*
X65308Y-22406D01*
X65650Y-22748D01*
X65650Y-24688D01*
X65635Y-24674D01*
X65386Y-24570D01*
X65115Y-24570D01*
X64865Y-24673D01*
X64750Y-24788D01*
X64635Y-24674D01*
X64386Y-24570D01*
X64115Y-24570D01*
X63865Y-24673D01*
X63788Y-24750D01*
X63211Y-24750D01*
X63135Y-24674D01*
X62886Y-24570D01*
X62615Y-24570D01*
X62365Y-24673D01*
X62250Y-24788D01*
X62135Y-24674D01*
X61886Y-24570D01*
X61615Y-24570D01*
X61365Y-24673D01*
X61288Y-24750D01*
X60711Y-24750D01*
X60635Y-24674D01*
X60386Y-24570D01*
X60115Y-24570D01*
X59865Y-24673D01*
X59750Y-24788D01*
X59635Y-24674D01*
X59386Y-24570D01*
X59115Y-24570D01*
X58865Y-24673D01*
X58788Y-24750D01*
X58211Y-24750D01*
X58135Y-24674D01*
X57886Y-24570D01*
X57615Y-24570D01*
X57365Y-24673D01*
X57250Y-24788D01*
X57135Y-24674D01*
X56886Y-24570D01*
X56615Y-24570D01*
X56365Y-24673D01*
X56288Y-24750D01*
X55711Y-24750D01*
X55635Y-24674D01*
X55386Y-24570D01*
X55115Y-24570D01*
X54865Y-24673D01*
X54750Y-24788D01*
X54635Y-24674D01*
X54386Y-24570D01*
X54115Y-24570D01*
X53865Y-24673D01*
X53674Y-24865D01*
X53570Y-25114D01*
X53570Y-25385D01*
X53673Y-25635D01*
X53678Y-25640D01*
X53696Y-25729D01*
X53826Y-25924D01*
X54575Y-26674D01*
X54576Y-26674D01*
X54770Y-26804D01*
X55000Y-26850D01*
X57752Y-26850D01*
X58400Y-27498D01*
X58400Y-30800D01*
X58446Y-31030D01*
X58576Y-31224D01*
X59350Y-31998D01*
X59350Y-32656D01*
X59304Y-32702D01*
X59251Y-32830D01*
X59251Y-32969D01*
X59251Y-33669D01*
X59304Y-33797D01*
X59402Y-33896D01*
X59530Y-33949D01*
X59669Y-33949D01*
X60369Y-33949D01*
X60497Y-33896D01*
X60596Y-33798D01*
X60649Y-33670D01*
X60649Y-33531D01*
X60649Y-32831D01*
X60596Y-32703D01*
X60550Y-32656D01*
X60550Y-31997D01*
X60599Y-31879D01*
X60599Y-31621D01*
X60543Y-31485D01*
X60543Y-30329D01*
X60543Y-28829D01*
X60543Y-27329D01*
X60532Y-27116D01*
X60472Y-26969D01*
X60378Y-26942D01*
X60308Y-27012D01*
X60308Y-26872D01*
X60281Y-26778D01*
X60079Y-26707D01*
X59866Y-26718D01*
X59719Y-26778D01*
X59692Y-26872D01*
X60000Y-27179D01*
X60308Y-26872D01*
X60308Y-27012D01*
X60071Y-27250D01*
X60378Y-27558D01*
X60472Y-27531D01*
X60543Y-27329D01*
X60543Y-28829D01*
X60532Y-28616D01*
X60472Y-28469D01*
X60378Y-28442D01*
X60308Y-28512D01*
X60308Y-28372D01*
X60308Y-27628D01*
X60000Y-27321D01*
X59692Y-27628D01*
X59719Y-27722D01*
X59921Y-27793D01*
X60134Y-27782D01*
X60281Y-27722D01*
X60308Y-27628D01*
X60308Y-28372D01*
X60281Y-28278D01*
X60079Y-28207D01*
X59866Y-28218D01*
X59719Y-28278D01*
X59692Y-28372D01*
X60000Y-28679D01*
X60308Y-28372D01*
X60308Y-28512D01*
X60071Y-28750D01*
X60378Y-29058D01*
X60472Y-29031D01*
X60543Y-28829D01*
X60543Y-30329D01*
X60532Y-30116D01*
X60472Y-29969D01*
X60378Y-29942D01*
X60308Y-30012D01*
X60308Y-29872D01*
X60308Y-29128D01*
X60000Y-28821D01*
X59692Y-29128D01*
X59719Y-29222D01*
X59921Y-29293D01*
X60134Y-29282D01*
X60281Y-29222D01*
X60308Y-29128D01*
X60308Y-29872D01*
X60281Y-29778D01*
X60079Y-29707D01*
X59866Y-29718D01*
X59719Y-29778D01*
X59692Y-29872D01*
X60000Y-30179D01*
X60308Y-29872D01*
X60308Y-30012D01*
X60071Y-30250D01*
X60378Y-30558D01*
X60472Y-30531D01*
X60543Y-30329D01*
X60543Y-31485D01*
X60500Y-31382D01*
X60318Y-31200D01*
X60199Y-31151D01*
X59798Y-30749D01*
X59921Y-30793D01*
X60134Y-30782D01*
X60281Y-30722D01*
X60308Y-30628D01*
X60035Y-30356D01*
X60000Y-30321D01*
X59929Y-30250D01*
X59894Y-30215D01*
X59622Y-29942D01*
X59600Y-29948D01*
X59600Y-29051D01*
X59622Y-29058D01*
X59929Y-28750D01*
X59622Y-28442D01*
X59600Y-28448D01*
X59600Y-27551D01*
X59622Y-27558D01*
X59929Y-27250D01*
X59622Y-26942D01*
X59528Y-26969D01*
X59525Y-26977D01*
X59424Y-26826D01*
X58424Y-25826D01*
X58310Y-25750D01*
X58788Y-25750D01*
X58865Y-25826D01*
X59114Y-25930D01*
X59385Y-25930D01*
X59635Y-25827D01*
X59749Y-25711D01*
X59865Y-25826D01*
X60114Y-25930D01*
X60385Y-25930D01*
X60635Y-25827D01*
X60711Y-25750D01*
X61288Y-25750D01*
X61365Y-25826D01*
X61614Y-25930D01*
X61885Y-25930D01*
X62135Y-25827D01*
X62249Y-25711D01*
X62365Y-25826D01*
X62614Y-25930D01*
X62885Y-25930D01*
X63135Y-25827D01*
X63211Y-25750D01*
X63788Y-25750D01*
X63865Y-25826D01*
X64114Y-25930D01*
X64385Y-25930D01*
X64635Y-25827D01*
X64749Y-25711D01*
X64750Y-25711D01*
X64750Y-25750D01*
X64750Y-26651D01*
X64632Y-26700D01*
X64450Y-26882D01*
X64351Y-27121D01*
X64351Y-27379D01*
X64450Y-27618D01*
X64632Y-27800D01*
X64871Y-27899D01*
X65002Y-27899D01*
X64751Y-28150D01*
X64632Y-28200D01*
X64450Y-28382D01*
X64351Y-28621D01*
X64351Y-28879D01*
X64450Y-29118D01*
X64632Y-29300D01*
X64871Y-29399D01*
X65129Y-29399D01*
X65368Y-29300D01*
X65550Y-29118D01*
X65599Y-28998D01*
X66575Y-28023D01*
X66575Y-40325D01*
M02*
