G04 (created by PCBNEW-RS274X (2011-05-25)-stable) date Wed 14 Mar 2012 11:53:24 PM MST*
G01*
G70*
G90*
%MOIN*%
G04 Gerber Fmt 3.4, Leading zero omitted, Abs format*
%FSLAX34Y34*%
G04 APERTURE LIST*
%ADD10C,0.006000*%
%ADD11R,0.055000X0.055000*%
%ADD12C,0.055000*%
%ADD13C,0.060000*%
%ADD14C,0.066000*%
%ADD15C,0.070000*%
%ADD16R,0.070000X0.070000*%
%ADD17R,0.100000X0.100000*%
%ADD18C,0.100000*%
%ADD19C,0.030000*%
G04 APERTURE END LIST*
G54D10*
G54D11*
X62250Y-35750D03*
G54D12*
X63250Y-35750D03*
X63250Y-34750D03*
G54D13*
X51000Y-29000D03*
X50000Y-30000D03*
X49000Y-29000D03*
X47500Y-29000D03*
X46500Y-30000D03*
X45500Y-29000D03*
X38000Y-26750D03*
X38000Y-21750D03*
X43750Y-38750D03*
X48750Y-38750D03*
X65000Y-28750D03*
X60000Y-28750D03*
X65000Y-27250D03*
X60000Y-27250D03*
X39750Y-35250D03*
X39750Y-30250D03*
X48750Y-31750D03*
X43750Y-31750D03*
X51500Y-22750D03*
X51500Y-27750D03*
X59950Y-31750D03*
X64950Y-31750D03*
X65000Y-30250D03*
X60000Y-30250D03*
X38500Y-30250D03*
X38500Y-35250D03*
X49000Y-37500D03*
X44000Y-37500D03*
G54D14*
X64250Y-25250D03*
X65250Y-25250D03*
X57750Y-35250D03*
X56750Y-35250D03*
X55250Y-35250D03*
X54250Y-35250D03*
X52750Y-35250D03*
X51750Y-35250D03*
X50250Y-35250D03*
X49250Y-35250D03*
X47750Y-35250D03*
X46750Y-35250D03*
X43250Y-21750D03*
X42250Y-21750D03*
X45750Y-21750D03*
X44750Y-21750D03*
X48250Y-21750D03*
X47250Y-21750D03*
X50750Y-21750D03*
X49750Y-21750D03*
X54500Y-21750D03*
X55500Y-21750D03*
X57000Y-21750D03*
X58000Y-21750D03*
X59500Y-21750D03*
X60500Y-21750D03*
X62000Y-21750D03*
X63000Y-21750D03*
X64500Y-21750D03*
X65500Y-21750D03*
X61750Y-25250D03*
X62750Y-25250D03*
X40250Y-25250D03*
X39250Y-25250D03*
X42750Y-25250D03*
X41750Y-25250D03*
X45250Y-25250D03*
X44250Y-25250D03*
X47750Y-25250D03*
X46750Y-25250D03*
X50250Y-25250D03*
X49250Y-25250D03*
X54250Y-25250D03*
X55250Y-25250D03*
X56750Y-25250D03*
X57750Y-25250D03*
X59250Y-25250D03*
X60250Y-25250D03*
X40750Y-21750D03*
X39750Y-21750D03*
X54750Y-38250D03*
X53750Y-38250D03*
X50750Y-38250D03*
X49750Y-38250D03*
G54D11*
X41750Y-36250D03*
G54D12*
X42750Y-36250D03*
X43750Y-36250D03*
X44750Y-36250D03*
X44750Y-33250D03*
X43750Y-33250D03*
X42750Y-33250D03*
X41750Y-33250D03*
G54D15*
X52750Y-27750D03*
G54D16*
X52750Y-22750D03*
G54D15*
X65000Y-37250D03*
G54D16*
X60000Y-37250D03*
G54D15*
X64950Y-33250D03*
G54D16*
X59950Y-33250D03*
G54D17*
X56250Y-32250D03*
G54D18*
X54250Y-32250D03*
X52250Y-32250D03*
G54D16*
X41250Y-29000D03*
G54D15*
X43250Y-29000D03*
G54D16*
X40750Y-38250D03*
G54D15*
X38750Y-38250D03*
G54D19*
X52250Y-32250D02*
X52250Y-32000D01*
X54000Y-30250D02*
X60000Y-30250D01*
X52250Y-32000D02*
X54000Y-30250D01*
X43250Y-29000D02*
X43250Y-29250D01*
X44750Y-30750D02*
X44750Y-33250D01*
X43250Y-29250D02*
X44750Y-30750D01*
X50250Y-25250D02*
X54250Y-25250D01*
X62250Y-35750D02*
X60000Y-35750D01*
X54250Y-32750D02*
X54250Y-32250D01*
X57750Y-33500D02*
X60000Y-35750D01*
X55000Y-33500D02*
X57750Y-33500D01*
X54250Y-32750D02*
X55000Y-33500D01*
M02*
